<mxfile host="app.diagrams.net" modified="2024-04-06T11:11:36.828Z" agent="Mozilla/5.0 (Windows NT 10.0; Win64; x64) AppleWebKit/537.36 (KHTML, like Gecko) Chrome/123.0.0.0 Safari/537.36" etag="BA1B3eP3tXVXFkSnWeYe" version="24.2.2" type="github">
  <diagram name="Page-1" id="0v-FqcQt7GnRPBdVcpUn">
    <mxGraphModel dx="1050" dy="522" grid="1" gridSize="10" guides="1" tooltips="1" connect="1" arrows="1" fold="1" page="1" pageScale="1" pageWidth="850" pageHeight="1100" math="0" shadow="0">
      <root>
        <mxCell id="0" />
        <mxCell id="1" parent="0" />
        <mxCell id="PpS_umZwbRxvpihdLgCO-1" value="" style="rounded=0;whiteSpace=wrap;html=1;" vertex="1" parent="1">
          <mxGeometry x="90" y="120" width="590" height="560" as="geometry" />
        </mxCell>
        <mxCell id="PpS_umZwbRxvpihdLgCO-22" style="edgeStyle=orthogonalEdgeStyle;rounded=0;orthogonalLoop=1;jettySize=auto;html=1;entryX=0;entryY=0.5;entryDx=0;entryDy=0;endArrow=none;endFill=0;" edge="1" parent="1" source="PpS_umZwbRxvpihdLgCO-2" target="PpS_umZwbRxvpihdLgCO-5">
          <mxGeometry relative="1" as="geometry" />
        </mxCell>
        <mxCell id="PpS_umZwbRxvpihdLgCO-2" value="Patient&lt;div&gt;&lt;br&gt;&lt;/div&gt;" style="shape=umlActor;verticalLabelPosition=bottom;verticalAlign=top;html=1;outlineConnect=0;" vertex="1" parent="1">
          <mxGeometry x="40" y="250" width="30" height="60" as="geometry" />
        </mxCell>
        <mxCell id="PpS_umZwbRxvpihdLgCO-4" value="" style="edgeStyle=orthogonalEdgeStyle;rounded=0;orthogonalLoop=1;jettySize=auto;html=1;endArrow=none;endFill=0;" edge="1" parent="1" source="PpS_umZwbRxvpihdLgCO-5" target="PpS_umZwbRxvpihdLgCO-7">
          <mxGeometry relative="1" as="geometry" />
        </mxCell>
        <mxCell id="PpS_umZwbRxvpihdLgCO-5" value="&lt;div style=&quot;&quot;&gt;&lt;span style=&quot;background-color: initial;&quot;&gt;Select a family member&lt;/span&gt;&lt;/div&gt;" style="ellipse;whiteSpace=wrap;html=1;verticalAlign=middle;align=center;" vertex="1" parent="1">
          <mxGeometry x="125" y="240" width="115" height="80" as="geometry" />
        </mxCell>
        <mxCell id="PpS_umZwbRxvpihdLgCO-6" value="" style="edgeStyle=orthogonalEdgeStyle;rounded=0;orthogonalLoop=1;jettySize=auto;html=1;endArrow=none;endFill=0;" edge="1" parent="1" source="PpS_umZwbRxvpihdLgCO-7" target="PpS_umZwbRxvpihdLgCO-10">
          <mxGeometry relative="1" as="geometry" />
        </mxCell>
        <mxCell id="PpS_umZwbRxvpihdLgCO-7" value="Navigate to prescription section" style="ellipse;whiteSpace=wrap;html=1;verticalAlign=middle;" vertex="1" parent="1">
          <mxGeometry x="320" y="240" width="115" height="80" as="geometry" />
        </mxCell>
        <mxCell id="PpS_umZwbRxvpihdLgCO-8" value="" style="edgeStyle=orthogonalEdgeStyle;rounded=0;orthogonalLoop=1;jettySize=auto;html=1;endArrow=none;endFill=0;" edge="1" parent="1" source="PpS_umZwbRxvpihdLgCO-10" target="PpS_umZwbRxvpihdLgCO-12">
          <mxGeometry relative="1" as="geometry" />
        </mxCell>
        <mxCell id="PpS_umZwbRxvpihdLgCO-19" style="edgeStyle=orthogonalEdgeStyle;rounded=0;orthogonalLoop=1;jettySize=auto;html=1;exitX=1;exitY=0;exitDx=0;exitDy=0;endArrow=none;endFill=0;" edge="1" parent="1" source="PpS_umZwbRxvpihdLgCO-10" target="PpS_umZwbRxvpihdLgCO-17">
          <mxGeometry relative="1" as="geometry" />
        </mxCell>
        <mxCell id="PpS_umZwbRxvpihdLgCO-10" value="User selects desired pharmacy from the list" style="ellipse;whiteSpace=wrap;html=1;verticalAlign=middle;spacingLeft=5;" vertex="1" parent="1">
          <mxGeometry x="320" y="400" width="115" height="80" as="geometry" />
        </mxCell>
        <mxCell id="PpS_umZwbRxvpihdLgCO-11" style="edgeStyle=orthogonalEdgeStyle;rounded=0;orthogonalLoop=1;jettySize=auto;html=1;entryX=0;entryY=0.5;entryDx=0;entryDy=0;endArrow=none;endFill=0;" edge="1" parent="1" source="PpS_umZwbRxvpihdLgCO-12" target="PpS_umZwbRxvpihdLgCO-16">
          <mxGeometry relative="1" as="geometry" />
        </mxCell>
        <mxCell id="PpS_umZwbRxvpihdLgCO-12" value="CRUD operations on prescriptions available" style="ellipse;whiteSpace=wrap;html=1;verticalAlign=middle;" vertex="1" parent="1">
          <mxGeometry x="312.5" y="555" width="130" height="90" as="geometry" />
        </mxCell>
        <mxCell id="PpS_umZwbRxvpihdLgCO-16" value="Saves data" style="ellipse;whiteSpace=wrap;html=1;verticalAlign=middle;" vertex="1" parent="1">
          <mxGeometry x="515" y="560" width="115" height="80" as="geometry" />
        </mxCell>
        <mxCell id="PpS_umZwbRxvpihdLgCO-20" style="edgeStyle=orthogonalEdgeStyle;rounded=0;orthogonalLoop=1;jettySize=auto;html=1;entryX=1;entryY=0.5;entryDx=0;entryDy=0;endArrow=none;endFill=0;" edge="1" parent="1" source="PpS_umZwbRxvpihdLgCO-17" target="PpS_umZwbRxvpihdLgCO-7">
          <mxGeometry relative="1" as="geometry">
            <Array as="points">
              <mxPoint x="573" y="340" />
              <mxPoint x="475" y="340" />
              <mxPoint x="475" y="280" />
            </Array>
          </mxGeometry>
        </mxCell>
        <mxCell id="PpS_umZwbRxvpihdLgCO-21" style="edgeStyle=orthogonalEdgeStyle;rounded=0;orthogonalLoop=1;jettySize=auto;html=1;" edge="1" parent="1" source="PpS_umZwbRxvpihdLgCO-17" target="PpS_umZwbRxvpihdLgCO-5">
          <mxGeometry relative="1" as="geometry">
            <Array as="points">
              <mxPoint x="573" y="170" />
              <mxPoint x="183" y="170" />
            </Array>
          </mxGeometry>
        </mxCell>
        <mxCell id="PpS_umZwbRxvpihdLgCO-17" value="User cancels edit" style="ellipse;whiteSpace=wrap;html=1;verticalAlign=middle;" vertex="1" parent="1">
          <mxGeometry x="515" y="360" width="115" height="80" as="geometry" />
        </mxCell>
        <mxCell id="PpS_umZwbRxvpihdLgCO-18" style="edgeStyle=orthogonalEdgeStyle;rounded=0;orthogonalLoop=1;jettySize=auto;html=1;entryX=0.374;entryY=0.995;entryDx=0;entryDy=0;entryPerimeter=0;endArrow=none;endFill=0;" edge="1" parent="1" source="PpS_umZwbRxvpihdLgCO-12" target="PpS_umZwbRxvpihdLgCO-17">
          <mxGeometry relative="1" as="geometry">
            <Array as="points">
              <mxPoint x="520" y="570" />
              <mxPoint x="520" y="440" />
            </Array>
          </mxGeometry>
        </mxCell>
      </root>
    </mxGraphModel>
  </diagram>
</mxfile>
